<?xml version="1.0" encoding="iso-8859-1"?>
<!-- Generator: Adobe Illustrator 17.1.0, SVG Export Plug-In . SVG Version: 6.00 Build 0)  -->
<!DOCTYPE svg PUBLIC "-//W3C//DTD SVG 1.1//EN" "http://www.w3.org/Graphics/SVG/1.1/DTD/svg11.dtd">
<svg version="1.1" id="Capa_1" xmlns="http://www.w3.org/2000/svg" xmlns:xlink="http://www.w3.org/1999/xlink" x="0px" y="0px"
	 viewBox="0 0 487.866 487.866" style="enable-background:new 0 0 487.866 487.866;" xml:space="preserve">
<path d="M468.696,101.721v-9.856c0-2.762-2.239-5-5-5H298.433c-7.76,0-15.171,1.508-21.975,4.22c-0.182,0.062-0.36,0.128-0.531,0.21
	c-5.933,2.431-11.384,5.793-16.182,9.903H25c-13.785,0-25,11.215-25,25v235.519c0,13.785,11.215,25,25,25h194.875v9.286
	c0,2.762,2.239,5,5,5h38.117c2.761,0,5-2.238,5-5v-9.286h195.704c13.328,0,24.17-10.843,24.17-24.171V125.368
	C487.866,113.754,479.632,104.03,468.696,101.721z M458.696,96.864v219.369H305.683c-22.635,0-43.625,10.936-56.806,28.516V146.42
	c0-18.06,9.715-33.888,24.189-42.55v160.856c0,2.762,2.239,5,5,5s5-2.238,5-5V99.315c4.841-1.583,10.003-2.451,15.367-2.451H458.696
	z M458.696,326.233v33.022H251.545c10.338-20.012,31.257-33.022,54.138-33.022H458.696z M477.866,362.545
	c0,7.813-6.357,14.171-14.17,14.171H262.992c-2.761,0-5,2.238-5,5v9.286h-28.117v-9.286c0-0.032-0.009-0.061-0.009-0.092v-13.225
	c0-2.762-2.239-5-5-5s-5,2.238-5,5v8.316H25c-8.271,0-15-6.729-15-15V126.197c0-8.271,6.729-15,15-15h194.865v227.184
	c0,2.762,2.239,5,5,5s5-2.238,5-5V111.197h20.583c-7.266,9.873-11.571,22.052-11.571,35.223v217.836
	c0,2.421,1.735,4.494,4.118,4.922c0.296,0.053,0.592,0.078,0.885,0.078c0.021,0,0.041-0.004,0.062-0.005
	c0.016,0,0.031,0.005,0.047,0.005h219.707c2.761,0,5-2.238,5-5v-43.022V112.125c5.35,2.027,9.17,7.191,9.17,13.243V362.545z
	 M303.297,337.148h143.36c2.761,0,5,2.238,5,5s-2.239,5-5,5h-143.36c-2.761,0-5-2.238-5-5S300.536,337.148,303.297,337.148z
	 M214.8,361.867c0,2.762-2.239,5-5,5H22.066c-2.761,0-5-2.238-5-5s2.239-5,5-5H209.8C212.561,356.867,214.8,359.105,214.8,361.867z
	 M300.136,257.097h74.3c2.761,0,5-2.238,5-5V149.694c0-2.762-2.239-5-5-5h-74.3c-2.761,0-5,2.238-5,5v102.402
	C295.136,254.858,297.375,257.097,300.136,257.097z M305.136,154.694h64.3v92.402h-64.3V154.694z M360.267,160.394h-45.96
	c-2.761,0-5,2.238-5,5v62.476c0,2.762,2.239,5,5,5h12.613h20.733h12.614c2.761,0,5-2.238,5-5v-62.476
	C365.267,162.632,363.028,160.394,360.267,160.394z M331.919,189.276c0-2.959,2.408-5.366,5.367-5.366s5.367,2.407,5.367,5.366
	c0,2.96-2.408,5.367-5.367,5.367S331.919,192.236,331.919,189.276z M331.919,222.869v-12.858c0-2.96,2.408-5.367,5.367-5.367
	s5.367,2.407,5.367,5.367v12.858H331.919z M355.267,222.869h-2.614v-12.858c0-3.997-1.547-7.631-4.057-10.367
	c2.51-2.736,4.057-6.37,4.057-10.367c0-8.473-6.894-15.366-15.367-15.366s-15.367,6.894-15.367,15.366
	c0,3.997,1.547,7.631,4.057,10.367c-2.51,2.736-4.057,6.37-4.057,10.367v12.858h-2.613v-52.476h35.96V222.869z M388.603,208.359
	h53.978c2.761,0,5-2.238,5-5v-53.665c0-2.762-2.239-5-5-5h-53.978c-2.761,0-5,2.238-5,5v53.665
	C383.603,206.121,385.842,208.359,388.603,208.359z M393.603,192.74l13.367-13.133l14.868,18.752h-28.235V192.74z M434.6,198.359
	l-9.341-11.781l5.11-6.736l7.212,7.555v10.963H434.6z M437.581,154.694v18.22l-4.031-4.223c-1.012-1.061-2.444-1.623-3.899-1.54
	c-1.462,0.083-2.815,0.803-3.701,1.97l-7.106,9.366l-7.493-9.45c-0.881-1.111-2.193-1.796-3.608-1.884
	c-1.415-0.1-2.802,0.428-3.813,1.424l-10.326,10.145v-24.028H437.581z M388.603,257.097h53.978c2.761,0,5-2.238,5-5v-34.134
	c0-2.762-2.239-5-5-5h-53.978c-2.761,0-5,2.238-5,5v34.134C383.603,254.858,385.842,257.097,388.603,257.097z M393.603,247.097
	v-6.571c1.885,1.807,4.513,3.504,8.493,3.504c5.696,0,8.627-3.477,10.567-5.777c1.629-1.932,2.011-2.223,2.922-2.223
	c0.914,0,1.296,0.291,2.927,2.224c1.94,2.301,4.873,5.776,10.571,5.776c3.983,0,6.612-1.698,8.498-3.507v6.574H393.603z
	 M437.581,222.963v4.133c-2.607,1.209-4.304,3.208-5.571,4.71c-1.631,1.933-2.014,2.224-2.927,2.224s-1.296-0.291-2.927-2.224
	c-1.94-2.301-4.873-5.776-10.571-5.776c-5.697,0-8.628,3.477-10.567,5.777c-1.629,1.932-2.011,2.223-2.921,2.223
	c-0.912,0-1.294-0.291-2.924-2.224c-1.267-1.502-2.963-3.5-5.569-4.709v-4.133H437.581z"/>
<g>
</g>
<g>
</g>
<g>
</g>
<g>
</g>
<g>
</g>
<g>
</g>
<g>
</g>
<g>
</g>
<g>
</g>
<g>
</g>
<g>
</g>
<g>
</g>
<g>
</g>
<g>
</g>
<g>
</g>
</svg>
